<svg width="202" height="54" fill="none" xmlns="http://www.w3.org/2000/svg"><path fill-rule="evenodd" clip-rule="evenodd" d="M29.763 1.983a3.517 3.517 0 0 0-3.725 3.296l-1.29 21.124c-.02.298 0 .59.054.871a3.523 3.523 0 0 0 2.598 3.112l23.442 6.286a3.52 3.52 0 0 0 4.31-2.49 3.522 3.522 0 0 0-2.49-4.312l-20.74-5.561 1.136-18.6a3.517 3.517 0 0 0-3.295-3.726zM19.117 12.836c-1.558-.179-2.986 1.124-3.188 2.91l-1.907 16.813c-.02.171-.027.34-.023.507-.144 1.24.62 2.553 1.957 3.18l17.612 8.251c1.622.76 3.472.221 4.133-1.203.66-1.425-.118-3.195-1.739-3.954l-16.134-7.56 1.745-15.388c.202-1.786-.897-3.378-2.456-3.556zM8.167 23.459a2.16 2.16 0 0 1 2.49-1.776 2.169 2.169 0 0 1 1.778 2.494l-2.098 12.607 12.084 8.508a2.18 2.18 0 0 1 .533 3.024 2.152 2.152 0 0 1-3.009.53l-13.11-9.23c-.301-.212-.532-.486-.687-.793a2.16 2.16 0 0 1-.29-1.488l2.309-13.876z" fill="#93D6F2"/><path d="M85.423 45.025c-1.893 0-2.84-.512-2.84-1.536V13.773h-9.105c-.5 0-.874-.177-1.124-.53-.215-.353-.322-.936-.322-1.748v-1.377c0-.813.107-1.395.322-1.749.25-.353.625-.53 1.124-.53h25.228c.5 0 .857.177 1.07.53.25.354.376.936.376 1.749v1.377c0 .812-.125 1.395-.375 1.748-.214.353-.571.53-1.071.53h-9.052v29.716c0 1.024-.946 1.536-2.839 1.536h-1.392zM106.57 45.025c-1.892 0-2.839-.512-2.839-1.536V6.515c0-.988.947-1.483 2.84-1.483h1.07c1.893 0 2.839.495 2.839 1.483v13.932c.928-1.06 2.071-1.925 3.428-2.596a9.657 9.657 0 0 1 4.338-1.006c2.535 0 4.535.688 6 2.066 1.499 1.342 2.249 3.513 2.249 6.515V43.49c0 1.024-.947 1.536-2.839 1.536h-1.071c-1.893 0-2.839-.512-2.839-1.536V26.327c0-1.236-.357-2.19-1.071-2.86-.679-.707-1.696-1.06-3.053-1.06a4.861 4.861 0 0 0-3.214 1.165c-.928.742-1.57 1.448-1.928 2.12v17.797c0 1.024-.946 1.536-2.839 1.536h-1.07zM145.103 45.29c-4.606 0-8.034-1.2-10.283-3.602-2.25-2.436-3.375-5.915-3.375-10.435 0-4.873 1.107-8.493 3.321-10.86 2.25-2.365 5.41-3.548 9.48-3.548 3.857 0 6.713 1.236 8.57 3.708 1.893 2.472 2.84 5.81 2.84 10.011 0 .389-.322.954-.965 1.695-.643.707-1.125 1.06-1.446 1.06h-14.783c.178 2.33.821 4.026 1.928 5.085 1.143 1.024 2.785 1.536 4.928 1.536 1.928 0 3.892-.494 5.891-1.483.572-.247.929-.37 1.072-.37.464 0 .982.476 1.553 1.43.607.918.91 1.624.91 2.118 0 .671-.517 1.29-1.553 1.854-1.035.565-2.32 1.007-3.856 1.325-1.5.317-2.91.476-4.232.476zm3.857-16.686c0-2.013-.41-3.584-1.232-4.714-.785-1.13-1.964-1.695-3.535-1.695-3.32 0-5.231 2.136-5.731 6.41h10.498zM163.425 45.025c-1.893 0-2.84-.512-2.84-1.536V26.115c0-2.366-.106-4.097-.32-5.191-.215-1.095-.322-1.766-.322-2.013 0-.495.59-.866 1.768-1.113 1.178-.282 2.232-.423 3.16-.423.571 0 .982.247 1.232.741.25.495.428 1.024.536 1.59.142.529.232.9.267 1.112 1.643-2.649 3.625-3.973 5.946-3.973 1.107 0 1.892.265 2.356.794.5.495.75 1.077.75 1.748 0 .707-.143 1.537-.428 2.49-.286.954-.643 1.43-1.072 1.43-.178 0-.535-.07-1.07-.212a4.63 4.63 0 0 0-1.554-.264c-1.036 0-1.964.335-2.785 1.006-.822.671-1.393 1.29-1.714 1.854V43.49c0 1.024-.965 1.536-2.893 1.536h-1.017zM191.449 45.29c-4.607 0-8.035-1.2-10.284-3.602-2.25-2.436-3.374-5.915-3.374-10.435 0-4.873 1.106-8.493 3.32-10.86 2.25-2.365 5.41-3.548 9.48-3.548 3.857 0 6.714 1.236 8.57 3.708 1.893 2.472 2.84 5.81 2.84 10.011 0 .389-.322.954-.965 1.695-.643.707-1.125 1.06-1.446 1.06h-14.783c.179 2.33.821 4.026 1.928 5.085 1.143 1.024 2.785 1.536 4.928 1.536 1.928 0 3.892-.494 5.892-1.483.57-.247.928-.37 1.07-.37.465 0 .983.476 1.554 1.43.607.918.91 1.624.91 2.118 0 .671-.517 1.29-1.553 1.854-1.035.565-2.32 1.007-3.856 1.325-1.5.317-2.91.476-4.231.476zm3.856-16.686c0-2.013-.41-3.584-1.232-4.714-.785-1.13-1.964-1.695-3.535-1.695-3.32 0-5.231 2.136-5.731 6.41h10.498z" fill="#606264"/></svg>