<svg width="17" height="14" fill="none" xmlns="http://www.w3.org/2000/svg"><path fill-rule="evenodd" clip-rule="evenodd" d="M1.037 9.425A3.563 3.563 0 0 1 3.542 8.4h5.666c.94 0 1.84.369 2.505 1.025A3.48 3.48 0 0 1 12.75 11.9v1.4c0 .387-.317.7-.708.7a.704.704 0 0 1-.709-.7v-1.4c0-.557-.223-1.091-.622-1.485A2.138 2.138 0 0 0 9.208 9.8H3.542c-.564 0-1.104.221-1.503.615a2.088 2.088 0 0 0-.622 1.485v1.4c0 .387-.317.7-.709.7A.704.704 0 0 1 0 13.3v-1.4a3.48 3.48 0 0 1 1.037-2.475zM6.375 1.4c-1.174 0-2.125.94-2.125 2.1 0 1.16.951 2.1 2.125 2.1S8.5 4.66 8.5 3.5c0-1.16-.951-2.1-2.125-2.1zM2.833 3.5C2.833 1.567 4.42 0 6.375 0c1.956 0 3.542 1.567 3.542 3.5S8.33 7 6.375 7C4.419 7 2.833 5.433 2.833 3.5zM13.48 9.016a.71.71 0 0 1 .864-.503c.76.194 1.433.632 1.914 1.245.48.613.741 1.366.742 2.141V13.3c0 .387-.317.7-.708.7a.704.704 0 0 1-.709-.7v-1.4c0-.465-.157-.917-.445-1.285a2.127 2.127 0 0 0-1.148-.746.7.7 0 0 1-.51-.853zM10.647.617a.709.709 0 0 1 .862-.504c.762.193 1.437.63 1.92 1.244a3.474 3.474 0 0 1 0 4.292 3.545 3.545 0 0 1-1.92 1.245.7.7 0 1 1-.351-1.356 2.127 2.127 0 0 0 1.151-.747 2.084 2.084 0 0 0 0-2.575 2.127 2.127 0 0 0-1.151-.747.7.7 0 0 1-.51-.852z" fill="#fff"/></svg>